PathFileType	4	(X/Y/Z)	C:/Users/opensim2020/Desktop/walking_exp_matlab/subject01_walking12_straight_03.trc	
DataRate	CameraRate	NumFrames	NumMarkers	Units	OrigDataRate	OrigDataStartFrame	OrigNumFrames	
100.00	100.00	4	44	mm	100.00	1906	172	
Frame#	Time	LFHD			RFHD			LBHD			RBHD			C7			T10			CLAV			STRN			RBAK			LSHO			LUPA			LELB			LFRM			LWRA			LWRB			LFIN			RSHO			RUPA			RELB			RFRM			RWRA			RWRB			RFIN			LASI			RASI			LPSI			RPSI			LTHI			LKNE			LTIB			LANK			LHEE			LTOE			RTHI			RKNE			RTIB			RANK			RHEE			RTOE			*39			*40			*41			*42			*43			
		X1	Y1	Z1	X2	Y2	Z2	X3	Y3	Z3	X4	Y4	Z4	X5	Y5	Z5	X6	Y6	Z6	X7	Y7	Z7	X8	Y8	Z8	X9	Y9	Z9	X10	Y10	Z10	X11	Y11	Z11	X12	Y12	Z12	X13	Y13	Z13	X14	Y14	Z14	X15	Y15	Z15	X16	Y16	Z16	X17	Y17	Z17	X18	Y18	Z18	X19	Y19	Z19	X20	Y20	Z20	X21	Y21	Z21	X22	Y22	Z22	X23	Y23	Z23	X24	Y24	Z24	X25	Y25	Z25	X26	Y26	Z26	X27	Y27	Z27	X28	Y28	Z28	X29	Y29	Z29	X30	Y30	Z30	X31	Y31	Z31	X32	Y32	Z32	X33	Y33	Z33	X34	Y34	Z34	X35	Y35	Z35	X36	Y36	Z36	X37	Y37	Z37	X38	Y38	Z38	X39	Y39	Z39	X40	Y40	Z40	X41	Y41	Z41	X42	Y42	Z42	X43	Y43	Z43	X44	Y44	Z44	

130	1.290	-1082.03943	569.78900	1654.33386	-968.49518	583.77966	1657.41699	-1074.91687	451.11600	1616.96350	-953.96991	463.03989	1619.34583	-1029.04248	403.20041	1420.77380	-1022.21832	366.41974	1126.19739	-1034.06824	546.98444	1352.26160	-1039.37683	589.82385	1198.32336	-945.38580	350.67615	1227.90088	-1193.21265	479.64764	1383.04419	-1271.88879	418.85913	1203.41077	-1262.84937	380.60022	1059.22729	-1284.46606	389.19855	945.90607	-1264.92285	434.27982	812.99475	-1286.22510	378.95963	823.49121	-1291.75146	401.50864	740.54785	-879.69135	491.97665	1381.34082	-767.99652	460.76178	1183.61536	-755.34650	481.39355	1057.23401	-739.17316	567.64850	966.15277	-779.33734	691.73303	911.40338	-736.02466	661.50415	887.88843	-744.12531	734.70642	848.33740	-1129.04700	549.06720	923.21228	-910.87048	535.32092	920.18695	-1091.76550	359.73676	928.85553	-949.34216	352.19809	937.57196	-1203.08325	603.16040	610.21582	-1184.05688	638.98914	483.45584	-1199.90527	654.28369	297.84998	-1157.78540	721.41101	82.05078	-1101.88306	692.02460	38.56002	-1159.19495	870.27795	93.83413	-866.54279	416.46426	597.15399	-895.24567	384.51688	438.57022	-894.49713	276.81555	296.92444	-947.74622	184.73398	109.95177	-998.64484	126.69340	90.50607	-959.60217	308.69440	36.50554	-990.35297	573.97296	1691.93860	-3101.95093	1973.16956	1023.60297	-3140.64063	2012.56433	1022.14862						 
131	1.300	-1083.97937	580.80206	1653.65796	-970.22229	594.56104	1656.77954	-1076.82349	462.13846	1616.31775	-955.91895	473.89185	1618.76514	-1030.98938	414.31335	1419.78076	-1023.78223	378.56348	1125.25513	-1035.80420	558.28680	1351.80688	-1040.96875	601.85040	1198.10425	-946.98755	362.09180	1226.99963	-1195.10095	490.84271	1382.11633	-1273.46057	430.42172	1202.20923	-1264.30750	392.44528	1058.06836	-1285.82800	401.25531	944.72070	-1265.56287	445.94812	811.83563	-1287.71802	391.00430	822.37091	-1292.79443	413.51505	739.36523	-881.69037	502.68924	1380.93372	-769.62891	470.78418	1183.52246	-756.88867	490.91043	1057.04395	-740.54956	577.12256	965.86346	-780.40857	701.22589	911.16418	-737.33850	670.69885	887.63336	-745.11438	744.05457	847.96710	-1130.19934	561.95129	922.78009	-912.07782	547.37732	919.14325	-1093.23865	372.48050	928.39984	-950.99536	364.52377	937.08313	-1202.03296	617.82294	610.18976	-1182.57727	652.15308	482.68036	-1198.31152	663.08289	295.63437	-1155.06152	725.06848	78.73701	-1099.89795	693.92841	36.87997	-1156.05798	874.17017	87.51730	-867.39948	426.82703	596.76086	-895.31470	393.98227	438.39398	-894.45532	283.52875	298.70459	-946.69495	187.59415	113.64809	-997.25366	128.82126	95.83347	-959.29486	308.72479	36.21062	-992.30280	584.80377	1691.15186	-3101.93286	1973.13025	1023.53180	-3140.80859	2012.52014	1021.98083						 
132	1.310	-1085.76257	591.79877	1653.01514	-972.07068	605.42413	1656.18481	-1078.75256	473.07452	1615.64111	-957.92993	484.70096	1618.15710	-1033.29712	425.38501	1418.69434	-1025.28882	390.91440	1124.19031	-1037.66089	569.71283	1351.40454	-1042.63135	614.03040	1197.93213	-948.75867	373.58319	1225.94409	-1197.08313	502.22461	1381.20032	-1275.21802	442.02701	1201.10059	-1265.92419	404.55838	1056.92505	-1287.31689	413.58289	943.51178	-1267.02502	458.63947	810.81219	-1289.22766	403.42557	821.28033	-1294.14233	426.20203	738.24213	-883.60181	513.33582	1380.41455	-771.31232	480.56723	1183.36169	-758.56586	500.08820	1056.76807	-741.94263	586.18109	965.47534	-781.48975	710.33844	910.54974	-738.45648	679.89282	887.06421	-746.14905	753.05792	847.31165	-1131.41187	575.20978	922.31146	-912.91443	560.25201	918.38086	-1094.84888	385.58130	927.90631	-952.74420	377.10162	936.65948	-1200.33472	631.96576	609.48822	-1180.87769	665.09729	481.82056	-1196.78906	671.56909	293.34256	-1152.93604	727.54816	75.62811	-1098.17700	695.05444	35.33085	-1152.46240	876.93970	80.23570	-868.18365	437.72321	596.26154	-895.49915	403.73672	437.75211	-894.30823	290.67700	300.48804	-945.69684	190.49515	117.31770	-996.11987	131.22998	101.09646	-959.07593	309.20807	36.17826	-994.07092	595.63379	1690.52563	-3101.91943	1973.09277	1023.39990	-3140.77856	2012.52905	1021.98608						 
133	1.320	-1087.53198	602.80585	1652.49341	-973.81445	616.17749	1655.66382	-1080.90833	484.05350	1615.03613	-960.03815	495.26764	1617.50610	-1035.63135	436.46765	1417.63269	-1026.95459	403.45160	1123.07520	-1039.59705	581.24432	1351.02405	-1044.37207	626.36896	1197.88123	-950.81543	385.22455	1224.74585	-1199.15198	513.83698	1380.31860	-1277.05603	453.79257	1200.00793	-1267.65527	416.88831	1055.65161	-1288.80676	426.25925	942.29877	-1268.21509	471.56296	809.77631	-1290.41296	416.55612	819.98175	-1295.45386	439.69559	737.20935	-885.58551	523.88049	1379.91919	-773.13831	490.23663	1183.14331	-760.30505	509.07761	1056.42456	-743.37323	594.90472	964.82452	-782.57550	718.95862	909.55286	-739.67914	688.19312	886.15436	-747.16693	761.43884	846.11646	-1132.55347	588.58032	921.76068	-914.02301	573.02228	917.53851	-1096.66321	398.72516	927.46130	-954.44849	389.78574	936.55676	-1198.37305	645.68176	608.78015	-1180.02808	677.23505	480.59125	-1194.96716	679.56555	290.93643	-1150.76221	730.45129	73.82018	-1097.75952	697.06866	36.48488	-1148.82019	881.81097	71.46301	-869.16577	449.01791	595.76959	-895.61694	414.46420	437.14777	-894.44489	297.95993	302.34445	-944.58081	193.52338	121.33105	-994.86353	134.14314	106.92728	-959.05975	309.72946	36.21049	-995.88074	606.49689	1690.10388	-3101.89722	1973.05859	1023.48212	-3140.72998	2012.45215	1022.09357						 
